<?xml version="1.0" encoding="UTF-8"?>
<svg width="512px" height="512px" viewBox="0 0 512 512" version="1.1" xmlns="http://www.w3.org/2000/svg" xmlns:xlink="http://www.w3.org/1999/xlink">
    <title>Icon</title>
    <defs>
        <rect id="path-1" x="0" y="0" width="512" height="512" rx="114"></rect>
        <linearGradient x1="50%" y1="0%" x2="50%" y2="100%" id="linearGradient-3">
            <stop stop-color="#FF8126" offset="0%"></stop>
            <stop stop-color="#FF117E" offset="100%"></stop>
        </linearGradient>
    </defs>
    <g id="Icon" stroke="none" stroke-width="1" fill="none" fill-rule="evenodd">
        <mask id="mask-2" fill="white">
            <use xlink:href="#path-1"></use>
        </mask>
        <rect stroke="#979797" x="0.5" y="0.5" width="511" height="511" rx="114"></rect>
        <rect id="Background" fill="url(#linearGradient-3)" mask="url(#mask-2)" x="0" y="0" width="512" height="512"></rect>
        <text id="S" fill="#FFFFFF" fill-rule="nonzero" style="mix-blend-mode: overlay;" mask="url(#mask-2)" font-family="SFProRounded-Semibold, SF Pro Rounded" font-size="375" font-weight="500">
            <tspan x="74" y="319">S</tspan>
        </text>
        <g id="investigate" opacity="0.896081834" mask="url(#mask-2)" fill="#FFFFFF" fill-rule="nonzero">
            <g transform="translate(120.000000, 186.000000)">
                <path d="M188.045801,0 C167.074763,0 146.648572,5.86685208 128.975811,16.9655626 C126.246907,18.679638 125.428761,22.2730849 127.14856,24.9929063 C128.867776,27.7133097 132.47439,28.5287323 135.20271,26.8140749 C151.009095,16.8875708 169.282179,11.6405795 188.046385,11.6405795 C242.786803,11.6405795 287.321717,56.0272733 287.321717,110.585506 C287.321717,165.143738 242.786803,209.530432 188.046385,209.530432 C133.305967,209.530432 88.771053,165.143738 88.771053,110.585506 C88.771053,91.8808403 94.0355654,73.6685716 103.995801,57.9182855 C105.7156,55.1984641 104.897455,51.6044351 102.169135,49.8909418 C99.4408153,48.1762845 95.8342009,48.9917071 94.1149857,51.7115285 C82.9780454,69.3237253 77.0916021,89.6813528 77.0916021,110.585506 C77.0916021,134.78627 84.9378572,157.191476 98.2191447,175.420041 L88.2320463,185.373901 C81.7213365,182.282745 73.6788666,183.416537 68.2963917,188.781099 L5.12282613,251.743829 C-1.70731672,258.551822 -1.70790069,269.628998 5.12282613,276.437573 L21.6399055,292.89968 C24.9399343,296.188144 29.3395835,298 34.027715,298 C38.7164306,298 43.1160797,296.188726 46.4155245,292.89968 L109.587922,229.937531 C112.887367,226.648486 114.705274,222.263479 114.705274,217.590369 C114.705274,214.939227 114.118965,212.381791 113.010585,210.064152 L122.99418,200.113203 C141.283616,213.35087 163.763639,221.170429 188.045217,221.170429 C249.226268,221.170429 299,171.562353 299,110.584923 C299,49.6074937 249.226852,0 188.045801,0 Z M101.329966,221.706478 L38.1575688,284.668044 C37.0637883,285.758185 35.5974332,286.358838 34.028299,286.358838 C32.4591648,286.358838 30.9928097,285.758185 29.8990291,284.668044 L13.3819498,268.205937 C11.1050408,265.937188 11.1050408,262.244214 13.3819498,259.974883 L76.5543474,197.012152 C77.6925099,195.877778 79.1874796,195.3103 80.6830333,195.3103 C82.178587,195.3103 83.6741406,195.877778 84.8123031,197.012152 L101.329966,213.474842 C102.423747,214.564982 103.025823,216.026457 103.025823,217.589787 C103.025823,219.153117 102.424331,220.615755 101.329966,221.706478 Z M105.459236,201.128261 L97.2006966,192.896625 L105.607565,184.517736 C108.215003,187.402854 110.971353,190.150031 113.866105,192.74879 L105.459236,201.128261 Z" id="Shape"></path>
                <path d="M256.571333,154.72852 C259.40225,156.2545 262.94425,155.20876 264.479,152.39286 C271.362333,139.76336 275,125.44954 275,111 C275,63.0282 235.7475,24 187.5,24 C139.2525,24 100,63.0282 100,111 C100,158.9718 139.2525,198 187.5,198 C202.03375,198 216.429833,194.38254 229.13075,187.53854 C231.962833,186.01198 233.015167,182.49196 231.479833,179.67548 C229.945083,176.859 226.4025,175.81442 223.571583,177.33982 C212.571667,183.26742 200.09825,186.4 187.499417,186.4 C145.684917,186.4 111.666083,152.57614 111.666083,111 C111.666083,69.42386 145.684917,35.6 187.499417,35.6 C229.3145,35.6 263.33275,69.42386 263.33275,111 C263.33275,123.52568 260.182167,135.92782 254.221083,146.86604 C252.686333,149.68252 253.738667,153.20254 256.571333,154.72852 Z" id="Path"></path>
                <path d="M114.000708,42 C115.441096,42 116.886883,41.4846321 118.036314,40.4388972 C120.487553,38.210036 120.668726,34.4158723 118.440054,31.9638251 C116.210783,29.5117778 112.416941,29.331789 109.965702,31.5600502 L109.962702,31.56305 C107.511463,33.7919112 107.33209,37.584875 109.560762,40.0369223 C110.744387,41.3394411 112.369548,42 114.000708,42 Z" id="Path"></path>
                <path d="M246.00277,174 C247.357271,174 248.72017,173.543411 249.841323,172.609235 C252.386562,170.487688 252.730286,166.704183 250.609754,164.159046 C248.487422,161.61271 244.705256,161.270119 242.161217,163.390466 L242.157618,163.393466 C239.612379,165.515012 239.270455,169.296718 241.390987,171.842454 C242.577525,173.265618 244.284149,174 246.00277,174 Z" id="Path"></path>
                <path d="M248.929299,114.884758 C250.3569,112.856947 250.3569,110.143638 248.929299,108.115827 C236.284501,90.1564718 212.937932,79 188.000291,79 C163.06265,79 139.715499,90.1570572 127.070701,108.115827 C125.6431,110.143638 125.6431,112.856947 127.070701,114.884758 C139.715499,132.844114 163.06265,144 188.000291,144 C212.937932,144 236.284501,132.844114 248.929299,114.884758 Z M208.662691,111.5 C208.662691,122.964975 199.393175,132.292671 187.999709,132.292671 C176.606825,132.292671 167.337309,122.964975 167.337309,111.5 C167.337309,100.03561 176.606825,90.7079146 187.999709,90.7079146 C199.393175,90.7079146 208.662691,100.03561 208.662691,111.5 Z M139.184948,111.500585 C144.416576,105.336368 151.317811,100.323625 159.228372,96.7638334 C156.97993,101.190596 155.703001,106.1969 155.703001,111.5 C155.703001,116.803685 156.980512,121.80999 159.228954,126.237337 C151.317811,122.677546 144.416576,117.664802 139.184948,111.500585 Z M216.771628,126.236752 C219.02007,121.809404 220.297581,116.803685 220.297581,111.499415 C220.297581,106.196315 219.020652,101.19001 216.77221,96.763248 C224.682189,100.323039 231.583424,105.335783 236.815052,111.5 C231.582842,117.664802 224.682189,122.676961 216.771628,126.236752 Z" id="Shape"></path>
                <path d="M187.9988,116 L188.003599,116 C191.316137,116 194,113.3132 194,110 C194,106.6868 191.311938,104 187.9988,104 C184.685663,104 182,106.6868 182,110 C182,113.3132 184.686263,116 187.9988,116 Z" id="Path"></path>
            </g>
        </g>
    </g>
</svg>